<?xml version="1.0" encoding="utf-8"?><svg xmlns="http://www.w3.org/2000/svg" xmlns:xlink="http://www.w3.org/1999/xlink" width="1920" height="880" preserveAspectRatio="xMidYMid" viewBox="0 0 1920 880" style="z-index:1;margin-right:-2px;display:block;background-repeat-y:initial;background-repeat-x:initial;background-color:rgb(255, 255, 255);animation-play-state:paused" ><g transform="translate(960,440) scale(1,1) translate(-960,-440)" style="transform:matrix(1, 0, 0, 1, 0, 0);animation-play-state:paused" ><linearGradient id="lg-0.3173225991104389" x1="0" x2="1" y1="0" y2="0" style="animation-play-state:paused" ><stop stop-color="#ff00ff" offset="0" style="animation-play-state:paused" ></stop>

  
<stop stop-color="#00ffff" offset="1" style="animation-play-state:paused" ></stop></linearGradient>
<path d="M 0 0 M 0 783.103 Q 192 749.558 384 739.671 T 768 774.181 T 1152 740.775 T 1536 691.774 T 1920 680.38 L 1920 251.492 Q 1728 231.63 1536 226.701 T 1152 132.139 T 768 124.397 T 384 166.922 T 0 113.154 Z" fill="url(#lg-0.3173225991104389)" opacity="0.4" style="opacity:0.4;animation-play-state:paused" ></path>
<path d="M 0 0 M 0 812.389 Q 192 737.62 384 733.158 T 768 738.779 T 1152 699.677 T 1536 704.659 T 1920 607.948 L 1920 247.72 Q 1728 191.658 1536 185.974 T 1152 201.489 T 768 107.365 T 384 128.514 T 0 85.2224 Z" fill="url(#lg-0.3173225991104389)" opacity="0.4" style="opacity:0.4;animation-play-state:paused" ></path>
<path d="M 0 0 M 0 791.394 Q 192 727.603 384 722.946 T 768 744.503 T 1152 693.849 T 1536 660.917 T 1920 608.645 L 1920 283.879 Q 1728 215.768 1536 206.699 T 1152 145.322 T 768 159.297 T 384 107.036 T 0 83.5602 Z" fill="url(#lg-0.3173225991104389)" opacity="0.4" style="opacity:0.4;animation-play-state:paused" ></path>
<path d="M 0 0 M 0 757.301 Q 192 783.577 384 780.515 T 768 778.861 T 1152 726.533 T 1536 643.493 T 1920 667.877 L 1920 243.243 Q 1728 268.832 1536 260.088 T 1152 139.363 T 768 179.64 T 384 134.798 T 0 120.795 Z" fill="url(#lg-0.3173225991104389)" opacity="0.4" style="opacity:0.4;animation-play-state:paused" ></path></g></svg>